<svg width="120" height="120" viewBox="0 0 120 120" xmlns="http://www.w3.org/2000/svg">
  <defs>
    <linearGradient id="huntGrad" x1="0%" y1="0%" x2="100%" y2="100%">
      <stop offset="0%" style="stop-color:#f59e0b;stop-opacity:1" />
      <stop offset="100%" style="stop-color:#d97706;stop-opacity:1" />
    </linearGradient>
  </defs>
  
  <!-- Main circle background -->
  <circle cx="60" cy="60" r="50" fill="url(#huntGrad)" />
  
  <!-- Magnifying glass lens -->
  <circle cx="52" cy="48" r="16" stroke="white" stroke-width="4" fill="none" />
  
  <!-- Magnifying glass handle -->
  <line x1="65" y1="61" x2="78" y2="74" stroke="white" stroke-width="4" stroke-linecap="round" />
  
  <!-- Target crosshair in lens -->
  <circle cx="52" cy="48" r="8" stroke="#d97706" stroke-width="2" fill="none" opacity="0.8" />
  <line x1="52" y1="40" x2="52" y2="56" stroke="#d97706" stroke-width="2" />
  <line x1="44" y1="48" x2="60" y2="48" stroke="#d97706" stroke-width="2" />
  
  <!-- Center dot -->
  <circle cx="52" cy="48" r="2" fill="#d97706" />
  
  <!-- Sparkle effects around the magnifying glass -->
  <g opacity="0.9">
    <path d="M 25 35 L 28 38 L 25 41 L 22 38 Z" fill="white">
      <animateTransform attributeName="transform" type="rotate" values="0 25 38;360 25 38" dur="3s" repeatCount="indefinite" />
    </path>
    <path d="M 88 25 L 91 28 L 88 31 L 85 28 Z" fill="white">
      <animateTransform attributeName="transform" type="rotate" values="0 88 28;360 88 28" dur="3s" begin="1s" repeatCount="indefinite" />
    </path>
    <path d="M 92 82 L 95 85 L 92 88 L 89 85 Z" fill="white">
      <animateTransform attributeName="transform" type="rotate" values="0 92 85;360 92 85" dur="3s" begin="2s" repeatCount="indefinite" />
    </path>
  </g>
  
  <!-- Falling coins with world map effect -->
  <circle cx="20" cy="15" r="3" fill="#fbbf24" opacity="0.8">
    <animateTransform attributeName="transform" type="translate" values="0,0;0,85" dur="2.5s" repeatCount="indefinite" />
  </circle>
  <circle cx="95" cy="10" r="3" fill="#fbbf24" opacity="0.8">
    <animateTransform attributeName="transform" type="translate" values="0,0;0,85" dur="2.5s" begin="0.8s" repeatCount="indefinite" />
  </circle>
  <circle cx="75" cy="5" r="2.5" fill="#fbbf24" opacity="0.6">
    <animateTransform attributeName="transform" type="translate" values="0,0;0,85" dur="2.5s" begin="1.5s" repeatCount="indefinite" />
  </circle>
</svg>